<?xml version="1.0" standalone="no"?>
<!DOCTYPE svg PUBLIC "-//W3C//DTD SVG 20010904//EN"
 "http://www.w3.org/TR/2001/REC-SVG-20010904/DTD/svg10.dtd">
<svg version="1.0" xmlns="http://www.w3.org/2000/svg"
 width="512.000000pt" height="512.000000pt" viewBox="0 0 512.000000 512.000000"
 preserveAspectRatio="xMidYMid meet">
<metadata>
Created by potrace 1.14, written by Peter Selinger 2001-2017
</metadata>
<g transform="translate(0.000000,512.000000) scale(0.100000,-0.100000)"
fill="#000000" stroke="none">
<path d="M2665 5085 c-71 -19 -140 -37 -153 -39 -41 -8 -66 -18 -137 -51 -125
-59 -222 -79 -365 -77 -190 3 -229 1 -285 -12 -314 -73 -319 -74 -386 -133
-18 -15 -89 -84 -158 -152 -140 -136 -207 -189 -326 -251 -108 -57 -170 -99
-236 -162 -151 -143 -232 -313 -240 -503 -5 -105 -34 -204 -84 -280 -11 -16
-64 -86 -118 -155 -55 -69 -107 -143 -117 -165 -39 -92 -55 -203 -54 -380 0
-155 22 -254 92 -415 83 -195 96 -291 77 -565 -22 -304 0 -418 111 -590 28
-44 59 -97 69 -118 15 -33 31 -45 119 -88 126 -64 229 -131 280 -184 21 -22
54 -73 73 -113 20 -41 57 -97 84 -125 27 -29 63 -78 81 -110 26 -48 41 -63 92
-91 104 -58 148 -69 291 -71 145 -3 257 8 325 32 56 19 110 19 225 -1 50 -8
110 -18 135 -21 25 -3 63 -8 85 -12 l40 -6 -42 -13 c-41 -12 -56 -12 -128 2
-45 9 -22 -9 70 -54 155 -77 281 -121 450 -157 51 -12 287 -14 340 -4 28 5 63
12 79 15 94 16 180 47 206 74 39 40 132 110 145 110 47 0 153 38 289 105 181
88 304 131 464 161 25 5 109 37 207 78 33 14 69 26 80 26 12 0 79 58 170 148
204 201 261 297 298 507 9 50 19 115 22 145 6 73 14 155 20 210 3 25 7 72 10
105 12 121 25 154 129 340 48 85 99 225 114 315 16 90 8 246 -17 315 -12 33
-24 86 -26 118 -2 31 -11 72 -20 89 -8 18 -24 68 -35 111 -11 44 -36 110 -55
148 -53 104 -84 186 -89 237 -3 26 -8 72 -12 102 -18 166 -61 327 -119 440
-18 36 -49 99 -68 140 -28 63 -52 94 -135 178 -56 56 -107 102 -113 102 -30 0
-196 84 -237 121 -26 23 -89 61 -139 85 -77 36 -151 80 -173 104 -3 3 -54 46
-115 95 -60 50 -120 99 -133 110 -50 42 -189 138 -237 162 -122 62 -261 92
-460 98 -123 4 -137 2 -260 -30z m1821 -2943 c-12 -11 -14 4 -8 53 l7 50 3
-49 c2 -26 1 -51 -2 -54z m-1659 -1846 c4 -3 0 -6 -8 -7 -8 0 -23 -2 -34 -5
-11 -2 -60 -7 -110 -10 -55 -4 -93 -12 -97 -19 -13 -22 -171 -12 -210 14 l-33
21 120 1 c66 0 140 4 165 8 50 9 198 7 207 -3z m-355 -89 c-59 -16 -244 -15
-250 1 -3 9 32 12 145 11 131 -1 143 -2 105 -12z"/>
</g>
</svg>
